v -0.500000 0.000000 0.500000
v 0.500000 0.000000 0.500000
v -0.500000 -0.000000 -0.500000
v 0.500000 -0.000000 -0.500000
v -0.400000 -0.000000 -0.400000
v -0.400000 0.000000 0.400000
v 0.400000 0.000000 0.400000
v 0.400000 -0.000000 -0.400000
v -0.400000 0.025000 -0.400000
v -0.425000 0.050000 -0.425000
v -0.425000 0.050000 0.425000
v -0.400000 0.025000 0.400000
v 0.425000 0.050000 0.425000
v 0.400000 0.025000 0.400000
v 0.425000 0.050000 -0.425000
v 0.400000 0.025000 -0.400000
v -0.475000 0.050000 -0.475000
v -0.500000 0.025000 -0.500000
v -0.500000 0.025000 0.500000
v -0.475000 0.050000 0.475000
v 0.500000 0.025000 0.500000
v 0.475000 0.050000 0.475000
v 0.500000 0.025000 -0.500000
v 0.475000 0.050000 -0.475000
vn -0.0000 -0.0000 1.0000
vn -0.0000 -1.0000 -0.0000
vn -1.0000 -0.0000 -0.0000
vn -0.0000 1.0000 -0.0000
vn 1.0000 -0.0000 -0.0000
vn -0.0000 -0.0000 -1.0000
vn 0.7071 0.7071 -0.0000
vn -0.0000 0.7071 -0.7071
vn -0.7071 0.7071 -0.0000
vn -0.0000 0.7071 0.7071
vt 0.000000 0.000000
vt 1.000000 0.000000
vt 0.000000 1.000000
vt 1.000000 1.000000
vt 0.100000 0.900000
vt 0.100000 0.100000
vt 0.900000 0.100000
vt 0.900000 0.900000
vt 0.100000 0.900000
vt 0.075000 0.925000
vt 0.075000 0.075000
vt 0.100000 0.100000
vt 0.925000 0.075000
vt 0.900000 0.100000
vt 0.925000 0.925000
vt 0.900000 0.900000
vt 0.025000 0.975000
vt 0.000000 1.000000
vt 0.000000 0.000000
vt 0.025000 0.025000
vt 1.000000 0.000000
vt 0.975000 0.025000
vt 1.000000 1.000000
vt 0.975000 0.975000
usemtl SelectionIndicator
f 8/8/1 9/9/1 5/5/1
f 1/1/2 5/5/2 6/6/2
f 2/2/2 6/6/2 7/7/2
f 4/4/2 7/7/2 8/8/2
f 3/3/2 8/8/2 5/5/2
f 7/7/3 16/16/3 8/8/3
f 1/1/3 18/18/3 3/3/3
f 10/10/4 20/20/4 11/11/4
f 2/2/1 19/19/1 1/1/1
f 4/4/5 21/21/5 2/2/5
f 6/6/6 14/14/6 7/7/6
f 11/11/4 22/22/4 13/13/4
f 3/3/6 23/23/6 4/4/6
f 13/13/4 24/24/4 15/15/4
f 15/15/4 17/17/4 10/10/4
f 11/11/7 9/9/7 10/10/7
f 11/11/8 14/14/8 12/12/8
f 15/15/9 14/14/9 13/13/9
f 15/15/10 9/9/10 16/16/10
f 19/19/9 17/17/9 18/18/9
f 21/21/10 20/20/10 19/19/10
f 23/23/7 22/22/7 21/21/7
f 18/18/8 24/24/8 23/23/8
f 5/5/5 12/12/5 6/6/5
f 8/8/1 16/16/1 9/9/1
f 1/1/2 3/3/2 5/5/2
f 2/2/2 1/1/2 6/6/2
f 4/4/2 2/2/2 7/7/2
f 3/3/2 4/4/2 8/8/2
f 7/7/3 14/14/3 16/16/3
f 1/1/3 19/19/3 18/18/3
f 10/10/4 17/17/4 20/20/4
f 2/2/1 21/21/1 19/19/1
f 4/4/5 23/23/5 21/21/5
f 6/6/6 12/12/6 14/14/6
f 11/11/4 20/20/4 22/22/4
f 3/3/6 18/18/6 23/23/6
f 13/13/4 22/22/4 24/24/4
f 15/15/4 24/24/4 17/17/4
f 11/11/7 12/12/7 9/9/7
f 11/11/8 13/13/8 14/14/8
f 15/15/9 16/16/9 14/14/9
f 15/15/10 10/10/10 9/9/10
f 19/19/9 20/20/9 17/17/9
f 21/21/10 22/22/10 20/20/10
f 23/23/7 24/24/7 22/22/7
f 18/18/8 17/17/8 24/24/8
f 5/5/5 9/9/5 12/12/5
