mtllib Object.mtl
v -0.500000 0.010000 0.500000
v 0.500000 0.010000 0.500000
v -0.500000 0.010000 -0.500000
v 0.500000 0.010000 -0.500000
v -0.450000 0.010000 -0.450000
v -0.450000 0.010000 0.450000
v 0.450000 0.010000 0.450000
v 0.450000 0.010000 -0.450000
vn -0.0000 1.0000 -0.0000
vt 0.000000 0.000000
vt 1.000000 0.000000
vt 0.000000 1.000000
vt 1.000000 1.000000
vt 0.050000 0.950000
vt 0.050000 0.050000
vt 0.950000 0.050000
vt 0.950000 0.950000
f 5/5/1 1/1/1 6/6/1
f 6/6/1 2/2/1 7/7/1
f 7/7/1 4/4/1 8/8/1
f 8/8/1 3/3/1 5/5/1
f 5/5/1 3/3/1 1/1/1
f 6/6/1 1/1/1 2/2/1
f 7/7/1 2/2/1 4/4/1
f 8/8/1 4/4/1 3/3/1
