# Blender 3.5.0
# www.blender.org
mtllib pine_tree.mtl
o Cone
v 0.000000 0.250000 -0.750000
v 0.750000 0.250000 -0.000000
v 0.000000 0.250000 0.750000
v -0.750000 0.250000 -0.000000
v 0.000000 1.375000 -0.000000
vn 0.6396 0.4264 -0.6396
vn 0.6396 0.4264 0.6396
vn -0.6396 0.4264 0.6396
vn -0.6396 0.4264 -0.6396
vt 0.250000 0.490000
vt 0.490000 0.250000
vt 0.250000 0.010000
vt 0.010000 0.250000
vt 0.250000 0.250000
s 0
usemtl Leaves
f 1/1/1 5/5/1 2/2/1
f 2/2/2 5/5/2 3/3/2
f 3/3/3 5/5/3 4/4/3
f 4/4/4 5/5/4 1/1/4
o Cone.001
v 0.000000 0.750000 -0.600000
v 0.600000 0.750000 -0.000000
v 0.000000 0.750000 0.600000
v -0.600000 0.750000 -0.000000
v 0.000000 1.650000 -0.000000
vn 0.6396 0.4264 -0.6396
vn 0.6396 0.4264 0.6396
vn -0.6396 0.4264 0.6396
vn -0.6396 0.4264 -0.6396
vt 0.250000 0.490000
vt 0.490000 0.250000
vt 0.250000 0.010000
vt 0.010000 0.250000
vt 0.250000 0.250000
s 0
usemtl Leaves
f 6/6/5 10/10/5 7/7/5
f 7/7/6 10/10/6 8/8/6
f 8/8/7 10/10/7 9/9/7
f 9/9/8 10/10/8 6/6/8
o Cone.002
v 0.000000 1.225000 -0.450000
v 0.450000 1.225000 -0.000000
v 0.000000 1.225000 0.450000
v -0.450000 1.225000 -0.000000
v 0.000000 1.900000 -0.000000
vn 0.6396 0.4264 -0.6396
vn 0.6396 0.4264 0.6396
vn -0.6396 0.4264 0.6396
vn -0.6396 0.4264 -0.6396
vt 0.250000 0.490000
vt 0.490000 0.250000
vt 0.250000 0.010000
vt 0.010000 0.250000
vt 0.250000 0.250000
s 0
usemtl Leaves
f 11/11/9 15/15/9 12/12/9
f 12/12/10 15/15/10 13/13/10
f 13/13/11 15/15/11 14/14/11
f 14/14/12 15/15/12 11/11/12
o Cube
v 0.100000 1.136061 -0.100000
v 0.100000 -0.000000 -0.100000
v 0.100000 1.136061 0.100000
v 0.100000 0.000000 0.100000
v -0.100000 1.136061 -0.100000
v -0.100000 -0.000000 -0.100000
v -0.100000 1.136061 0.100000
v -0.100000 0.000000 0.100000
vn -0.0000 -0.0000 1.0000
vn -1.0000 -0.0000 -0.0000
vn 1.0000 -0.0000 -0.0000
vn -0.0000 -0.0000 -1.0000
vt 0.625000 0.500000
vt 0.375000 0.500000
vt 0.625000 0.750000
vt 0.375000 0.750000
vt 0.625000 0.250000
vt 0.375000 0.250000
vt 0.625000 1.000000
vt 0.625000 0.000000
vt 0.375000 0.000000
vt 0.375000 1.000000
s 0
usemtl Wood
f 18/18/13 23/25/13 19/19/13
f 22/23/14 21/21/14 23/24/14
f 16/16/15 19/19/15 17/17/15
f 20/20/16 17/17/16 21/21/16
f 18/18/13 22/22/13 23/25/13
f 22/23/14 20/20/14 21/21/14
f 16/16/15 18/18/15 19/19/15
f 20/20/16 16/16/16 17/17/16
